Coordinates
version=1
nRows=12
nColumns=19
inDegrees=yes

Units are S.I. units (second, meters, Newtons, ...)
If the header above contains a line with 'inDegrees', this indicates whether rotational values are in degrees (yes) or radians (no).

endheader
time	pelvis_tilt	pelvis_list	pelvis_rotation	pelvis_tx	pelvis_ty	pelvis_tz	hip_flexion_r	hip_adduction_r	hip_rotation_r	knee_angle_r	knee_angle_r_beta	ankle_angle_r	hip_flexion_l	hip_adduction_l	hip_rotation_l	knee_angle_l	knee_angle_l_beta	ankle_angle_l
     11.44666667	      2.30757202	     -6.28592141	     -2.49092039	      2.32421964	      1.04721413	      1.01721486	     21.23735858	      9.69654272	     -3.96500689	     21.36277195	      0.37285071	      7.85681256	    -13.50250185	     -7.48201194	     -4.07499900	     47.07757667	      0.82165872	    -14.49910312
     11.45333333	      2.94571185	     -6.41788981	     -2.49038641	      2.32442112	      1.04357613	      1.01731891	     20.55272904	      9.82733609	     -4.03889002	     22.78944691	      0.39775088	      7.58424405	    -13.46935065	     -7.77626284	     -3.86228787	     49.08771662	      0.85674228	    -13.10664408
     11.46000000	      3.14252726	     -6.56865908	     -2.26861040	      2.32449302	      1.03915261	      1.01718025	     20.43093119	      9.88823958	     -4.46868882	     24.40320508	      0.42591628	      7.30594771	    -12.76677945	     -8.17445319	     -3.34533526	     51.27758397	      0.89496267	    -11.62964364
     11.46666667	      3.39618242	     -6.64722537	     -2.21000335	      2.32439839	      1.03457199	      1.01726487	     20.29078994	      9.95507225	     -4.62809445	     26.18490632	      0.45701283	      7.19169931	    -12.13520246	     -8.47896252	     -3.04300946	     53.38093297	      0.93167304	    -10.15961023
     11.47333333	      3.71498788	     -6.84597896	     -2.18370689	      2.32420589	      1.02989370	      1.01732136	     20.12932134	     10.16009742	     -4.80280630	     28.13677318	      0.49107933	      7.36587987	    -11.56514744	     -8.90335269	     -2.81338793	     55.42624975	      0.96737055	     -8.72601771
     11.48000000	      4.26548058	     -7.11203244	     -2.20917711	      2.32391709	      1.02540624	      1.01744437	     19.72386409	     10.46174383	     -4.92281456	     30.16078725	      0.52640504	      7.71034937	    -11.26472341	     -9.42411732	     -2.78046153	     57.35287977	      1.00099659	     -7.27346642
     11.48666667	      4.04978797	     -7.29208756	     -2.13869090	      2.32343143	      1.01984483	      1.01739674	     20.30078411	     10.63733199	     -5.17644278	     32.48037256	      0.56688944	      8.38701742	     -9.90190971	     -9.94392057	     -2.52667466	     59.51886092	      1.03880009	     -5.82278093
     11.49333333	      4.67578444	     -7.65936366	     -2.14781292	      2.32298828	      1.01534449	      1.01738019	     19.85704867	     11.05747891	     -5.25237217	     34.69847320	      0.60560260	      9.43804619	     -9.59992386	    -10.65043316	     -2.62530149	     61.35929667	      1.07092175	     -4.52272224
     11.50000000	      4.17180001	     -7.90933063	     -2.15743880	      2.32224950	      1.00946358	      1.01734441	     20.75164325	     11.36670259	     -5.35404034	     37.10731265	      0.64764478	     10.62915042	     -7.77855916	    -11.33441147	     -2.50051695	     63.54207445	      1.10901841	     -3.12637118
     11.50666667	      4.14643313	     -8.23037226	     -2.17621252	      2.32149344	      1.00431287	      1.01724756	     21.02158402	     11.76997350	     -5.34987367	     39.38012433	      0.68731283	     12.09954952	     -6.51024748	    -12.10670498	     -2.53528424	     65.52191899	      1.14357322	     -1.87052207
     11.51333333	      4.64500107	     -8.61272626	     -2.17404197	      2.32070531	      1.00004652	      1.01705447	     20.57167212	     12.24782085	     -5.25677139	     41.42850472	      0.72306381	     13.76139946	     -5.84524671	    -12.95723520	     -2.70001299	     67.29054622	      1.17444159	     -0.70747755
     11.52000000	      4.08786845	     -8.97868371	     -2.28547935	      2.31970148	      0.99469039	      1.01698989	     21.25029341	     12.77616678	     -5.07051891	     43.42429704	      0.75789696	     15.34801832	     -3.80190536	    -13.86860290	     -2.73114696	     69.31531066	      1.20978039	      0.48793638
